<?xml version="1.0" ?><!DOCTYPE svg  PUBLIC '-//W3C//DTD SVG 1.1//EN'  'http://www.w3.org/Graphics/SVG/1.1/DTD/svg11.dtd'><svg enable-background="new 0 0 24 24" height="24px" id="Layer_1" version="1.1" viewBox="0 0 24 24" width="24px" xml:space="preserve" xmlns="http://www.w3.org/2000/svg" xmlns:xlink="http://www.w3.org/1999/xlink"><g><path d="M7.6,16.3c0-0.1,0-0.2,0-0.3c0-0.3-0.1-0.5-0.1-0.8c0-3.6,3.7-6.6,8.3-6.6c0.3,0,0.6,0,0.9,0c0.1,0,0.2,0,0.3,0   c0.2,0,0.4,0,0.6,0.1c0.1,0,0.3,0.1,0.4,0.1c0.2,0,0.3,0.1,0.5,0.1c0.1,0,0.3,0.1,0.4,0.1c0.1,0,0.2,0.1,0.4,0.1   c0.1,0,0.2,0.1,0.3,0.1c-0.4-3.7-4.4-6.6-9.3-6.6C5.2,2.8,1,6,1,10c0,2,1.1,4,3.1,5.3c0.2,0.1,0.3,0.4,0.2,0.6l-1,1.9l2.6-1.3   c0.1-0.1,0.3-0.1,0.4,0c0.5,0.2,1,0.3,1.5,0.4c0-0.1,0-0.1,0-0.2C7.7,16.6,7.6,16.4,7.6,16.3z M13.6,6.4c0.5,0,0.8,0.4,0.8,0.8   S14,8.1,13.6,8.1c-0.5,0-0.8-0.4-0.8-0.8S13.1,6.4,13.6,6.4z M6.2,7.3c0-0.5,0.4-0.8,0.8-0.8c0.5,0,0.8,0.4,0.8,0.8S7.5,8.1,7,8.1   C6.6,8.1,6.2,7.7,6.2,7.3z"/><path d="M23,15.2c0-1.9-1.3-3.6-3.2-4.6c-0.3-0.1-0.5-0.3-0.8-0.4c-0.1,0-0.2-0.1-0.2-0.1c-0.3-0.1-0.6-0.2-0.9-0.3c0,0,0,0,0,0   c-0.3-0.1-0.6-0.1-0.9-0.2c-0.1,0-0.2,0-0.2,0c-0.3,0-0.6-0.1-1-0.1c-4,0-7.3,2.5-7.3,5.6c0,0.2,0,0.4,0,0.6c0,0.1,0,0.1,0,0.2   c0,0.1,0,0.3,0.1,0.4c0,0.1,0,0.1,0.1,0.2c0,0.1,0.1,0.2,0.1,0.3c0,0.1,0.1,0.2,0.1,0.3c1,2.2,3.7,3.7,6.8,3.7   c1.1,0,2.2-0.2,3.2-0.6c0.1,0,0.1,0,0.2,0c0.1,0,0.2,0,0.2,0.1l1.8,0.9L20.5,20c-0.1-0.2,0-0.5,0.2-0.6C22.1,18.3,23,16.8,23,15.2z    M13.2,15c-0.5,0-0.8-0.4-0.8-0.8c0-0.5,0.4-0.8,0.8-0.8c0.5,0,0.8,0.4,0.8,0.8C14,14.6,13.7,15,13.2,15z M18.3,15   c-0.5,0-0.8-0.4-0.8-0.8c0-0.5,0.4-0.8,0.8-0.8c0.5,0,0.8,0.4,0.8,0.8C19.2,14.6,18.8,15,18.3,15z"/></g></svg>