<?xml version="1.0" encoding="utf-8"?>
<!-- Generator: Adobe Illustrator 27.4.1, SVG Export Plug-In . SVG Version: 6.00 Build 0)  -->
<svg version="1.1" id="_图层_2" xmlns="http://www.w3.org/2000/svg" xmlns:xlink="http://www.w3.org/1999/xlink" x="0px" y="0px"
	 viewBox="0 0 530.6 100" style="enable-background:new 0 0 530.6 100;" xml:space="preserve">
<style type="text/css">
	.st0{fill:#FFFFFF;}
</style>
<g id="_图层_1-2">
	<g>
		<path class="st0" d="M205.7,29.2l-11,45.6c-0.6,2.4-1.4,4.1-2.6,5.2c-1.2,1.1-2.7,1.6-4.6,1.6H183l-12.7-37.5l-13,37.5h-4.5
			c-1.9,0-3.4-0.5-4.6-1.6c-1.2-1.1-2.1-2.8-2.6-5.2l-11.1-45.6h10.3l8.6,40.3l13.3-39h3.7c1.3,0,2.3,0.3,3,0.9
			c0.8,0.6,1.4,1.5,1.8,2.8L187,69.6l8.6-40.4L205.7,29.2L205.7,29.2z"/>
		<path class="st0" d="M215.8,78.4c-3.1-2.7-4.7-6.3-4.7-10.8v-3.5c0-4.4,1.6-8,4.9-10.7c3.3-2.7,7.6-4,12.9-4h6.6
			c2.1,0,4.3,0.3,6.7,0.9c2.4,0.6,4.4,1.5,6.1,2.6v-7.7c0-2.6-0.8-4.7-2.4-6.2c-1.6-1.6-3.7-2.4-6.3-2.4H231c-2.7,0-4.8,0.6-6.4,1.9
			c-1.6,1.3-2.4,2.9-2.4,4.9h-9.7c0-4.5,1.7-8.2,5.1-11c3.4-2.8,7.9-4.2,13.4-4.2h8.6c5.5,0,10,1.6,13.3,4.7c3.4,3.1,5,7.2,5,12.3
			v36.2h-9.1v-7c-1.6,2.4-3.7,4.3-6.3,5.7s-5.2,2.2-7.9,2.2h-6.3C223.1,82.4,218.9,81.1,215.8,78.4L215.8,78.4z M235.2,74.4
			c3.1,0,5.8-0.9,8.2-2.7s4-4.2,4.9-7.2v-3.2c-1.3-1.2-3.1-2.1-5.5-2.8c-2.3-0.7-4.7-1-7.1-1H229c-2.4,0-4.4,0.6-6,1.9
			c-1.5,1.3-2.3,2.9-2.3,5v3.2c0,2.1,0.8,3.8,2.3,5s3.5,1.8,6,1.8L235.2,74.4L235.2,74.4z"/>
		<path class="st0" d="M285,55l-19-25.7h11.1l13.5,18.4l13.5-18.4h11.1l-19,25.7l19.7,26.7h-11l-14.4-19.4l-14.4,19.4h-11
			C265.3,81.6,285,55,285,55z"/>
		<path class="st0" d="M324.8,78.4c-3.1-2.7-4.7-6.3-4.7-10.8v-3.5c0-4.4,1.6-8,4.9-10.7s7.6-4,12.9-4h6.6c2.1,0,4.3,0.3,6.7,0.9
			c2.4,0.6,4.4,1.5,6.1,2.6v-7.7c0-2.6-0.8-4.7-2.4-6.2c-1.6-1.6-3.7-2.4-6.3-2.4H340c-2.7,0-4.8,0.6-6.4,1.9
			c-1.6,1.3-2.4,2.9-2.4,4.9h-9.7c0-4.5,1.7-8.2,5.1-11s7.9-4.2,13.4-4.2h8.6c5.5,0,10,1.6,13.3,4.7c3.4,3.1,5,7.2,5,12.3v36.2h-9.1
			v-7c-1.6,2.4-3.7,4.3-6.3,5.7s-5.2,2.2-7.9,2.2h-6.3C332.1,82.4,327.9,81.1,324.8,78.4L324.8,78.4z M344.2,74.4
			c3.1,0,5.8-0.9,8.2-2.7s4-4.2,4.9-7.2v-3.2c-1.3-1.2-3.1-2.1-5.5-2.8c-2.3-0.7-4.7-1-7.1-1H338c-2.5,0-4.5,0.6-6,1.9
			c-1.5,1.3-2.3,2.9-2.3,5v3.2c0,2.1,0.8,3.8,2.3,5s3.5,1.8,6,1.8L344.2,74.4L344.2,74.4z"/>
		<circle class="st0" cx="383.6" cy="76.1" r="6.7"/>
	</g>
	<path class="st0" d="M47.3,17c0,2-1.7,3.7-3.7,3.7s-3.7-1.6-3.7-3.7s1.6-3.7,3.7-3.7S47.3,15,47.3,17z M85.2,13.3
		c-2,0-3.7,1.7-3.7,3.7s1.7,3.7,3.7,3.7s3.7-1.6,3.7-3.7S87.3,13.3,85.2,13.3z M28.2,69.3c-3.9-1.1-7.9-3.7-11.3-7.5
		C10,54.2,8.5,44.4,13.4,40s14.5-1.7,21.3,6c0.4,0.5,0.8,0.9,1.2,1.4c4,5.2,5.3,10.1,6.3,16.2c0.1,0.4-0.2,0.8-0.6,1
		c-1.1,0.4-2.2,1-3.2,1.6c-0.2,0.2-0.6,0.2-0.8,0.1c-0.6-0.2-1.2-0.3-1.9-0.1c-1.3,0.3-2.3,1.3-2.6,2.6c-0.4,2.2,1.2,4.1,3.3,4.1
		c1.6,0,3-1.1,3.3-2.6c0.1-0.2,0.2-0.5,0.5-0.6c0.3-0.2,0.7-0.4,1-0.6c0.6-0.3,1.4,0.1,1.4,0.8l0,0c0,0.3-0.1,0.5-0.3,0.7
		c-0.9,0.8-1.5,2-1.5,3.3c0,2.7,2.5,4.8,5.3,4.3c1.8-0.3,3.1-1.8,3.4-3.5c0.3-1.6-0.4-3.1-1.5-4.1c-0.2-0.2-0.3-0.4-0.3-0.7v-0.1
		c0-0.7,0.8-1.2,1.4-0.8c0.4,0.2,0.9,0.5,1.2,0.7c0.2,0.1,0.4,0.4,0.5,0.6c0.3,1.5,1.7,2.6,3.3,2.6c2.1,0,3.8-1.9,3.3-4.1
		c-0.3-1.3-1.3-2.3-2.6-2.6c-0.7-0.2-1.3-0.1-1.9,0.1c-0.3,0.1-0.6,0.1-0.8-0.1c-1.3-0.8-2.9-1.5-4.2-2c-0.3-0.1-0.5-0.4-0.6-0.7
		c-1-7.2-1-13.5-6.1-20.6c-3-4.1-6.3-5.9-6.3-9.9c0-1.8,0.3-3.5,0.9-5.1c-2.8-2.2-4.5-5.7-4.1-9.6c0.5-4.9,4.5-9,9.5-9.5
		c4.6-0.5,8.8,2.1,10.7,5.9c3.4-1.1,7.2-1.6,11.2-1.6s7.7,0.6,11.2,1.6c1.9-3.8,6-6.4,10.7-5.9c5,0.5,9,4.5,9.5,9.5
		c0.4,3.9-1.3,7.4-4.1,9.6c0.6,1.6,0.9,3.3,0.9,5.1c0,4-3,5.5-5.7,9.2c-5,6.9-6.4,13.3-6.7,21.2c0,0.3-0.3,0.7-0.6,0.8
		c-1.3,0.5-2.9,1.2-4.2,2c-0.2,0.2-0.5,0.2-0.8,0.1c-0.6-0.2-1.2-0.3-1.9-0.1c-1.3,0.3-2.3,1.3-2.6,2.6c-0.4,2.2,1.2,4.1,3.3,4.1
		c1.6,0,3-1.1,3.3-2.6c0.1-0.2,0.3-0.5,0.4-0.6c0.4-0.2,0.8-0.5,1.2-0.7c0.6-0.3,1.4,0.1,1.4,0.8v0.1c0,0.3-0.1,0.5-0.3,0.7
		c-1.1,1-1.8,2.5-1.5,4.1c0.3,1.8,1.7,3.2,3.4,3.5c2.8,0.6,5.3-1.6,5.3-4.3c0-1.3-0.6-2.5-1.5-3.3c-0.2-0.2-0.3-0.4-0.3-0.7l0,0
		c0-0.7,0.8-1.2,1.4-0.8c0.4,0.2,0.7,0.4,1.1,0.6c0.2,0.1,0.4,0.4,0.4,0.6c0.3,1.5,1.7,2.6,3.3,2.6c2.1,0,3.8-1.9,3.3-4.1
		c-0.3-1.3-1.3-2.3-2.6-2.6c-0.8-0.2-1.4-0.2-2,0c-0.3,0.1-0.6,0.1-0.8-0.1c-1-0.6-2.1-1.2-3.2-1.6c-0.4-0.2-0.6-0.6-0.6-1
		c0.9-6,2.9-12.7,7.4-17.6c7-7.5,16.4-10.3,21.3-6c4.9,4.4,3.4,14.2-3.4,21.8c-3.4,3.8-7.5,6.4-11.3,7.5c8.3,2.3,13.4,5.5,13.4,9
		c0,0.1,0,0.2,0,0.3c6.9,0.8,11.5,2.2,11.5,3.8c0,2.4-10.6,4.4-24.1,4.7C89.7,89.7,77,91.4,63,91.4C16.2,91.4,5,74.6,28.2,69.3
		L28.2,69.3z M76.1,19.3c0,4.2,3.4,7.6,7.6,7.6s7.6-3.4,7.6-7.6s-3.4-7.6-7.6-7.6S76.1,15.1,76.1,19.3z M49.8,19.3
		c0-4.2-3.4-7.6-7.6-7.6s-7.6,3.4-7.6,7.6s3.4,7.6,7.6,7.6S49.8,23.5,49.8,19.3z"/>
	<g>
		<path class="st0" d="M427.4,74.9l-4,2l-1.4-3.3l-19.6,6.9l-1.3-4.8l9.6-3V59.5h-4.2v2.3h-4.2V35.7h8.3v-8.8h4.6v8.8h8.4v23.8h-8.4
			v11.8l5.2-1.6c-0.8-2.5-1.5-4.5-1.8-5.9l3.8-1.1C423.9,66.9,425.5,71,427.4,74.9z M406.6,55.2h4.2V40h-4.2V55.2z M415.3,55.2h4.4
			V40h-4.4V55.2z M458.5,77.1v4.3h-35.1v-4.3h15.9V65.8h-12.9v-4.3h12.9V55h4.8v6.4h13v4.3h-13V77L458.5,77.1L458.5,77.1z
			 M458.5,47.7v4.4h-33.7v-4.4h14.4v-9.9H427v-4.3h12.2v-6.4h4.8v6.4h12.4v4.3H444v9.9C444,47.7,458.5,47.7,458.5,47.7z"/>
		<path class="st0" d="M518.3,83.2L496.8,77c-9,3.9-20.2,6-33.5,6.1l-0.9-4.4c10.8,0,20-1.2,27.7-3.7l-11.9-3.5l1.4-3.5l16.8,4.4
			c3.3-1.6,6.2-3.6,8.8-5.9h-25.6c-4.6,3-9.6,5.2-14.9,6.4l-2-4.3c4.9-1,8.9-2.3,12-4.1c3.1-1.7,5.6-3.5,7.4-5.4h-10.4v1.8H467v-25
			h20.2l1.6-3.6h-26v-4h56.8v4h-25.7l-2,3.6h23.7v23.2h-30.7l2.5,0.4c-1,1.2-2,2.3-3.1,3.2h30.2c-1.6,2.1-3.4,4.1-5.3,6
			c-1.9,1.8-4.2,3.6-6.8,5.2l17.7,4.7L518.3,83.2L518.3,83.2z M471.5,55.6h39.4V39.5h-39.4v3.1h36.2v3.2h-36.2v3h36.2V52h-36.2
			C471.5,52.1,471.5,55.6,471.5,55.6z"/>
	</g>
</g>
</svg>
