<?xml version="1.0" encoding="utf-8"?>
<!-- Generator: Adobe Illustrator 27.4.1, SVG Export Plug-In . SVG Version: 6.00 Build 0)  -->
<svg version="1.1" id="_图层_2" xmlns="http://www.w3.org/2000/svg" xmlns:xlink="http://www.w3.org/1999/xlink" x="0px" y="0px"
	 viewBox="0 0 906.5 251.3" style="enable-background:new 0 0 906.5 251.3;" xml:space="preserve">
<g id="_图层_1-2">
	<path d="M335.5,227.3l-54.4-62.9v62.9h-23V86.8h23v64.1l54.6-64.1h28.9l-61,70.3l62.1,70.1L335.5,227.3L335.5,227.3z M470.7,198.6
		h-58.8l-10.1,28.7h-24.1l50.3-140.7h26.7l50.3,140.7h-24.3L470.7,198.6L470.7,198.6z M464.3,179.8l-22.8-65.3l-23,65.3H464.3
		L464.3,179.8z M550,105.4v41.2h48.5v18.8H550v43.1h54.6v18.8h-77.6V86.6h77.6v18.8L550,105.4L550,105.4z M705.8,227.3l-32.3-56.2
		h-17.6v56.2h-23V86.8h48.5c10.8,0,19.9,1.9,27.4,5.7c7.5,3.8,13.1,8.8,16.8,15.2c3.7,6.3,5.6,13.4,5.6,21.2c0,9.2-2.7,17.5-8,25
		s-13.5,12.6-24.6,15.3l34.8,58.2L705.8,227.3L705.8,227.3z M655.9,152.7h25.5c8.6,0,15.1-2.1,19.5-6.5c4.4-4.3,6.6-10.1,6.6-17.4
		s-2.2-13-6.5-17.1s-10.8-6.2-19.6-6.2h-25.5L655.9,152.7L655.9,152.7z M788.6,219.5c-11-6.1-19.7-14.7-26.1-25.7
		s-9.6-23.4-9.6-37.1s3.2-26.1,9.6-37c6.4-10.9,15.1-19.4,26.1-25.6c11-6.1,23-9.2,36.1-9.2s25.3,3.1,36.3,9.2
		c11,6.1,19.6,14.7,26,25.6c6.3,10.9,9.5,23.2,9.5,37s-3.2,26.1-9.5,37.1c-6.3,11-15,19.5-26,25.7s-23.1,9.2-36.3,9.2
		S799.6,225.6,788.6,219.5z M849.6,202.3c7.3-4.2,13-10.3,17.1-18.2c4.1-7.9,6.2-17,6.2-27.4s-2.1-19.5-6.2-27.3
		c-4.1-7.8-9.8-13.8-17.1-18s-15.6-6.3-24.9-6.3s-17.6,2.1-24.9,6.3c-7.3,4.2-13,10.2-17.1,18c-4.1,7.8-6.2,16.9-6.2,27.3
		s2,19.5,6.2,27.4c4.1,7.9,9.8,13.9,17.1,18.2c7.3,4.2,15.6,6.4,24.9,6.4S842.3,206.6,849.6,202.3z M99.7,126c-3,0-5.4,2.4-5.4,5.4
		s2.4,5.4,5.4,5.4s5.4-2.4,5.4-5.4S102.7,126,99.7,126z M160.2,126c-3,0-5.4,2.4-5.4,5.4s2.4,5.4,5.4,5.4s5.4-2.4,5.4-5.4
		S163.2,126,160.2,126z M197.8,220.8c0-0.1,0-0.3,0-0.4c0-5.1-7.4-9.7-19.5-13.1c5.6-1.6,11.5-5.3,16.5-10.9
		c9.9-11.1,12.2-25.4,5-31.7s-20.8-2.3-30.9,8.7c-6.6,7.1-9.5,16.8-10.8,25.5c-0.1,0.6,0.3,1.2,0.8,1.4c1.6,0.6,3.2,1.4,4.6,2.3
		c0.4,0.2,0.8,0.3,1.2,0.1c0.8-0.3,1.8-0.4,2.7-0.2c1.9,0.4,3.4,1.9,3.8,3.8c0.6,3.2-1.8,6-4.8,6c-2.4,0-4.3-1.6-4.8-3.8
		c-0.1-0.4-0.3-0.7-0.6-0.9c-0.5-0.3-1-0.6-1.5-0.9c-0.9-0.5-2,0.2-2,1.2v0c0,0.4,0.2,0.8,0.5,1c1.4,1.2,2.2,2.9,2.2,4.8
		c0,3.9-3.6,7-7.6,6.2c-2.5-0.5-4.6-2.6-5-5.1c-0.4-2.4,0.5-4.5,2.1-5.9c0.3-0.3,0.5-0.6,0.5-1.1v-0.1c0-1-1.1-1.7-2-1.2
		c-0.6,0.3-1.2,0.7-1.8,1c-0.3,0.2-0.6,0.6-0.6,0.9c-0.5,2.2-2.5,3.8-4.8,3.8c-3.1,0-5.5-2.8-4.8-6c0.4-1.9,1.9-3.4,3.8-3.8
		c1-0.2,1.9-0.1,2.8,0.2c0.4,0.1,0.8,0.1,1.2-0.1c2-1.2,4.2-2.2,6.2-2.9c0.4-0.2,0.9-0.7,0.9-1.2c0.5-11.5,2.5-20.8,9.8-30.8
		c3.9-5.4,8.3-7.6,8.3-13.4c0-2.6-0.5-5-1.4-7.4c4.1-3.1,6.6-8.3,6-13.9c-0.8-7.2-6.6-13.1-13.8-13.8c-6.8-0.7-12.7,3-15.5,8.6
		c-5-1.5-10.4-2.4-16.2-2.4s-11.2,0.8-16.2,2.4c-2.8-5.6-8.7-9.2-15.5-8.6C88.9,120,83,125.8,82.2,133c-0.6,5.7,1.9,10.8,6,13.9
		c-0.9,2.4-1.4,4.9-1.4,7.4c0,5.8,4.8,8.4,9.1,14.4c7.5,10.4,7.5,19.5,8.9,29.9c0.1,0.5,0.4,0.9,0.9,1c2,0.7,4.2,1.7,6.2,2.9
		c0.4,0.2,0.8,0.3,1.2,0.1c0.8-0.3,1.8-0.4,2.8-0.2c1.9,0.4,3.4,1.9,3.8,3.8c0.6,3.2-1.8,6-4.8,6c-2.3,0-4.3-1.6-4.8-3.8
		c-0.1-0.3-0.4-0.7-0.7-0.9c-0.5-0.3-1.1-0.7-1.8-1c-0.9-0.5-2,0.2-2,1.2v0.1c0,0.4,0.2,0.8,0.5,1.1c1.6,1.4,2.5,3.6,2.1,5.9
		c-0.4,2.6-2.4,4.6-5,5.1c-4.1,0.8-7.6-2.3-7.6-6.2c0-1.9,0.9-3.6,2.2-4.8c0.3-0.3,0.5-0.6,0.5-1v0c0-1-1.1-1.7-2-1.2
		c-0.6,0.3-1.1,0.6-1.5,0.9c-0.3,0.2-0.6,0.5-0.7,0.9c-0.5,2.2-2.5,3.8-4.8,3.8c-3.1,0-5.5-2.8-4.8-6c0.4-1.9,1.9-3.4,3.8-3.8
		c1-0.2,1.9-0.1,2.7,0.2c0.4,0.1,0.8,0.1,1.2-0.1c1.5-0.9,3.1-1.7,4.6-2.3c0.6-0.2,0.9-0.8,0.8-1.4c-1.3-8.9-3.4-16-9.1-23.5
		c-0.5-0.7-1.1-1.4-1.7-2c-9.9-11.1-23.8-15-30.9-8.7s-4.9,20.6,5,31.7c5,5.6,10.9,9.3,16.5,10.9c-11,3.1-18.1,7.2-19.3,11.8
		c-3.1-0.1-6.3-0.2-9.6-0.2c-1.4,0-2.8,0-4.1,0c-8.2-74.6,11.9-112.6,37.5-133.6c7.6,3.2,15.7,6.2,24.1,8.9
		c53.7,17.3,101.9,16.6,107.8-1.5s-32.9-46.9-86.6-64.2S25.1,11.9,19.3,30.1c-1.6,4.8,0,10.4,4.2,16.3c7.1,10,18.5,16,30.6,16.8
		l19.7,1.3c3.6,0.2,4.3,5.2,0.9,6.4l-6.2,2.3c-2.7,1-2.9,4.8-0.3,6.1c1.6,0.8,3.2,1.5,4.8,2.3c-7.4,6.6-13.7,14.1-19.1,22.6
		c-8.4,13.4-14.3,29.5-17.3,47.8c-3.3,19.5-3.6,42.1-0.9,67.3C20.8,220,10,222,10,224.4c0,3,17.2,5.5,38.4,5.5
		c6.3,0,12.3-0.2,17.6-0.6c11.8,6,35,10,61.8,10c20.4,0,38.8-2.4,51.6-6.1c19.6-0.3,35-3.2,35-6.8
		C214.4,224.1,207.8,222,197.8,220.8L197.8,220.8z M157.9,123.6c6.1,0,11,4.9,11,11c0,6.1-4.9,11-11,11s-11-4.9-11-11
		C146.9,128.6,151.8,123.6,157.9,123.6z M97.7,145.7c-6.1,0-11-4.9-11-11c0-6.1,4.9-11,11-11s11,4.9,11,11
		C108.8,140.8,103.8,145.7,97.7,145.7z"/>
</g>
</svg>
