<?xml version="1.0" encoding="utf-8"?>
<!-- Generator: Adobe Illustrator 27.4.1, SVG Export Plug-In . SVG Version: 6.00 Build 0)  -->
<svg version="1.1" id="_图层_2" xmlns="http://www.w3.org/2000/svg" xmlns:xlink="http://www.w3.org/1999/xlink" x="0px" y="0px"
	 viewBox="0 0 540 135" style="enable-background:new 0 0 540 135;" xml:space="preserve">
<g id="_图层_1-2">
	<path d="M207.4,64.1l-11,45.6c-0.6,2.4-1.4,4.1-2.6,5.2c-1.2,1.1-2.7,1.6-4.6,1.6h-4.5L171.9,79l-13,37.5h-4.5
		c-1.9,0-3.4-0.5-4.6-1.6c-1.2-1.1-2.1-2.8-2.6-5.2L136,64.1h10.3l8.6,40.3l13.3-38.9h3.7c1.3,0,2.3,0.3,3,0.9
		c0.8,0.6,1.4,1.5,1.8,2.8l11.8,35.4l8.6-40.4L207.4,64.1L207.4,64.1z M217.4,113.3c-3.1-2.7-4.7-6.3-4.7-10.8v-3.5
		c0-4.4,1.6-8,4.9-10.7c3.3-2.7,7.6-4,12.9-4h6.6c2.1,0,4.3,0.3,6.7,0.9c2.4,0.6,4.4,1.5,6.1,2.6v-7.7c0-2.6-0.8-4.7-2.4-6.2
		c-1.6-1.6-3.7-2.4-6.3-2.4h-8.6c-2.7,0-4.8,0.6-6.4,1.9c-1.6,1.3-2.4,2.9-2.4,4.9h-9.7c0-4.5,1.7-8.2,5.1-11
		c3.4-2.8,7.9-4.2,13.4-4.2h8.6c5.5,0,10,1.6,13.3,4.7c3.4,3.1,5,7.2,5,12.3v36.2h-9.1v-7c-1.6,2.4-3.7,4.3-6.3,5.7
		s-5.2,2.2-7.9,2.2H230C224.7,117.3,220.5,116,217.4,113.3L217.4,113.3z M236.8,109.3c3.1,0,5.8-0.9,8.2-2.7s4-4.2,4.9-7.2v-3.2
		c-1.3-1.2-3.1-2.1-5.5-2.8c-2.3-0.7-4.7-1.1-7.1-1.1h-6.7c-2.4,0-4.4,0.6-6,1.9c-1.5,1.3-2.3,2.9-2.3,5v3.2c0,2.1,0.8,3.8,2.3,5
		c1.5,1.2,3.5,1.8,6,1.8L236.8,109.3L236.8,109.3z M286.6,89.9l-19-25.7h11.1l13.5,18.4l13.5-18.4H317l-19,25.7l19.7,26.7h-11
		l-14.4-19.4l-14.4,19.4h-11L286.6,89.9z M326.4,113.3c-3.2-2.7-4.7-6.3-4.7-10.8v-3.5c0-4.4,1.6-8,4.9-10.7c3.3-2.7,7.6-4,12.9-4
		h6.6c2.1,0,4.3,0.3,6.7,0.9c2.4,0.6,4.4,1.5,6.1,2.6v-7.7c0-2.6-0.8-4.7-2.4-6.2c-1.6-1.6-3.7-2.4-6.3-2.4h-8.6
		c-2.7,0-4.8,0.6-6.4,1.9c-1.6,1.3-2.4,2.9-2.4,4.9h-9.7c0-4.5,1.7-8.2,5.1-11c3.4-2.8,7.9-4.2,13.4-4.2h8.6c5.5,0,10,1.6,13.3,4.7
		c3.4,3.1,5,7.2,5,12.3v36.2h-9.1v-7c-1.6,2.4-3.7,4.3-6.3,5.7c-2.6,1.4-5.2,2.2-7.9,2.2H339C333.7,117.3,329.5,116,326.4,113.3
		L326.4,113.3z M345.8,109.3c3.1,0,5.8-0.9,8.2-2.7s4-4.2,4.9-7.2v-3.2c-1.3-1.2-3.1-2.1-5.5-2.8c-2.3-0.7-4.7-1.1-7.1-1.1h-6.7
		c-2.5,0-4.5,0.6-6,1.9c-1.5,1.3-2.3,2.9-2.3,5v3.2c0,2.1,0.8,3.8,2.3,5c1.5,1.2,3.5,1.8,6,1.8L345.8,109.3L345.8,109.3z
		 M380.3,115.7c-1.2-1.2-1.8-2.8-1.8-4.8s0.6-3.6,1.8-4.8c1.2-1.3,2.8-1.9,4.8-1.9c2,0,3.7,0.6,4.9,1.8c1.2,1.2,1.8,2.8,1.8,4.9
		s-0.6,3.6-1.9,4.8c-1.3,1.2-2.9,1.8-4.8,1.8C383.1,117.6,381.5,117,380.3,115.7z M65.5,69.3c0,1.5-1.2,2.7-2.7,2.7
		s-2.7-1.2-2.7-2.7s1.2-2.7,2.7-2.7S65.5,67.9,65.5,69.3z M92.9,66.7c-1.5,0-2.7,1.2-2.7,2.7s1.2,2.7,2.7,2.7s2.7-1.2,2.7-2.7
		S94.3,66.7,92.9,66.7z M119.7,116.5c0,1.8-7.6,3.2-17.4,3.3c-6.3,1.9-15.5,3.1-25.6,3.1c-13.3,0-24.8-2-30.7-5
		c-2.6,0.2-5.6,0.3-8.7,0.3c-10.5,0-19-1.2-19-2.7c0-1.2,5.4-2.2,12.8-2.6c-1.4-12.5-1.2-23.7,0.4-33.4c1.5-9.1,4.4-17.1,8.6-23.7
		c2.7-4.2,5.8-8,9.5-11.2c-0.8-0.4-1.6-0.8-2.4-1.1c-1.3-0.6-1.2-2.5,0.2-3l3.1-1.1c1.7-0.6,1.3-3.1-0.5-3.2l-9.8-0.6
		c-6-0.4-11.7-3.4-15.2-8.3c-2.1-2.9-2.9-5.7-2.1-8.1c2.9-9,26.8-9.3,53.5-0.8c26.6,8.6,45.9,22.9,43,31.9s-26.8,9.3-53.5,0.8
		c-4.2-1.3-8.2-2.8-12-4.4c-12.7,10.4-22.7,29.3-18.6,66.3c0.7,0,1.3,0,2,0c1.7,0,3.2,0,4.8,0.1c0.6-2.3,4.1-4.3,9.6-5.8
		c-2.8-0.8-5.7-2.6-8.2-5.4c-4.9-5.5-6-12.6-2.5-15.7c3.5-3.2,10.4-1.2,15.3,4.3c0.3,0.3,0.6,0.7,0.8,1c2.8,3.7,3.8,7.3,4.5,11.7
		c0,0.3-0.1,0.6-0.4,0.7c-0.8,0.3-1.6,0.7-2.3,1.2c-0.2,0.1-0.4,0.1-0.6,0.1c-0.4-0.2-0.9-0.2-1.3-0.1c-0.9,0.2-1.7,1-1.9,1.9
		c-0.3,1.6,0.9,3,2.4,3c1.2,0,2.1-0.8,2.4-1.9c0-0.2,0.2-0.3,0.3-0.4c0.2-0.2,0.5-0.3,0.8-0.4c0.5-0.2,1,0.1,1,0.6l0,0
		c0,0.2-0.1,0.4-0.2,0.5c-0.7,0.6-1.1,1.4-1.1,2.4c0,1.9,1.8,3.5,3.8,3.1c1.3-0.2,2.3-1.3,2.5-2.6c0.2-1.2-0.3-2.2-1.1-2.9
		c-0.2-0.1-0.2-0.3-0.2-0.5v-0.1c0-0.5,0.5-0.8,1-0.6c0.3,0.2,0.6,0.3,0.9,0.5c0.1,0.1,0.3,0.3,0.3,0.4c0.2,1.1,1.2,1.9,2.4,1.9
		c1.5,0,2.7-1.4,2.4-3c-0.2-0.9-0.9-1.7-1.9-1.9c-0.5-0.1-0.9-0.1-1.4,0.1c-0.2,0.1-0.4,0-0.6-0.1c-1-0.6-2.1-1.1-3.1-1.4
		c-0.2-0.1-0.4-0.3-0.4-0.5c-0.7-5.2-0.7-9.7-4.4-14.9c-2.1-2.9-4.5-4.2-4.5-7.1c0-1.3,0.2-2.5,0.7-3.7c-2-1.6-3.2-4.1-3-6.9
		c0.4-3.6,3.3-6.5,6.9-6.8c3.3-0.3,6.3,1.5,7.7,4.2c2.5-0.8,5.2-1.2,8-1.2s5.6,0.4,8,1.2c1.4-2.8,4.3-4.6,7.7-4.2
		c3.6,0.4,6.5,3.2,6.9,6.8c0.3,2.8-0.9,5.4-3,6.9c0.4,1.2,0.7,2.4,0.7,3.7c0,2.9-2.2,4-4.1,6.7c-3.6,5-4.6,9.6-4.8,15.3
		c0,0.2-0.2,0.5-0.4,0.6c-1,0.4-2.1,0.9-3.1,1.4c-0.2,0.1-0.4,0.1-0.6,0.1c-0.4-0.2-0.9-0.2-1.4-0.1c-0.9,0.2-1.7,1-1.9,1.9
		c-0.3,1.6,0.9,3,2.4,3c1.2,0,2.1-0.8,2.4-1.9c0-0.2,0.2-0.3,0.3-0.4c0.3-0.2,0.6-0.3,0.9-0.5c0.4-0.2,1,0.1,1,0.6v0.1
		c0,0.2-0.1,0.4-0.2,0.5c-0.8,0.7-1.3,1.8-1.1,2.9c0.2,1.3,1.2,2.3,2.5,2.6c2,0.4,3.8-1.2,3.8-3.1c0-1-0.4-1.8-1.1-2.4
		c-0.2-0.1-0.2-0.3-0.2-0.5l0,0c0-0.5,0.6-0.9,1-0.6c0.3,0.1,0.5,0.3,0.8,0.4c0.2,0.1,0.3,0.3,0.3,0.4c0.2,1.1,1.2,1.9,2.4,1.9
		c1.5,0,2.7-1.4,2.4-3c-0.2-0.9-0.9-1.7-1.9-1.9c-0.5-0.1-0.9-0.1-1.3,0.1c-0.2,0.1-0.4,0.1-0.6-0.1c-0.7-0.4-1.5-0.8-2.3-1.2
		c-0.3-0.1-0.5-0.4-0.4-0.7c0.7-4.3,2.1-9.1,5.3-12.7c5-5.4,11.8-7.5,15.3-4.3c3.6,3.2,2.4,10.2-2.5,15.7c-2.5,2.8-5.4,4.6-8.2,5.4
		c6,1.7,9.7,4,9.7,6.5c0,0.1,0,0.1,0,0.2C116.4,114.3,119.7,115.3,119.7,116.5L119.7,116.5z M86.2,71c0,3,2.4,5.5,5.5,5.5
		s5.5-2.4,5.5-5.5c0-3-2.4-5.5-5.5-5.5S86.2,68,86.2,71z M67.3,71c0-3-2.4-5.5-5.5-5.5c-3,0-5.5,2.5-5.5,5.5c0,3,2.5,5.5,5.5,5.5
		C64.9,76.5,67.3,74,67.3,71z M429,109.8l-4,2l-1.4-3.3l-19.6,6.9l-1.3-4.8l9.6-3V94.4h-4.2v2.3H404V70.6h8.3v-8.8h4.6v8.8h8.4v23.8
		H417v11.8l5.2-1.6c-0.8-2.5-1.5-4.4-1.8-5.9l3.8-1.1C425.5,101.8,427.2,105.9,429,109.8z M408.2,90.1h4.2V74.9h-4.2V90.1z
		 M417,90.1h4.4V74.9H417V90.1z M460.1,112v4.3H425V112h15.9v-11.3H428v-4.3h12.8v-6.4h4.8v6.4h13v4.3h-13V112H460.1L460.1,112z
		 M460.1,82.6V87h-33.7v-4.4h14.4v-9.9h-12.2v-4.3h12.2V62h4.8v6.4H458v4.3h-12.3v9.9H460.1z M519.9,118.1l-21.5-6.2
		c-9,3.9-20.2,6-33.5,6.1l-0.9-4.4c10.8,0,20-1.2,27.7-3.7l-11.9-3.5l1.4-3.5l16.8,4.4c3.3-1.6,6.2-3.6,8.8-5.9h-25.6
		c-4.6,3-9.6,5.2-14.9,6.4l-2-4.3c4.9-1,8.9-2.3,12-4.1c3.1-1.7,5.6-3.5,7.4-5.4h-10.4v1.8h-4.7V70.9h20.2l1.6-3.6h-26v-4h56.8v4
		h-25.7l-2,3.6h23.7V94h-30.7l2.5,0.4c-1,1.2-2,2.3-3.1,3.2h30.2c-1.6,2.1-3.4,4.1-5.3,6c-1.9,1.8-4.2,3.6-6.8,5.2l17.7,4.7
		L519.9,118.1L519.9,118.1z M473.2,90.5h39.4V74.4h-39.4v3.1h36.2v3.2h-36.2v3h36.2V87h-36.2C473.2,87,473.2,90.5,473.2,90.5z"/>
</g>
</svg>
