<?xml version="1.0" encoding="utf-8"?>
<!-- Generator: Adobe Illustrator 27.4.1, SVG Export Plug-In . SVG Version: 6.00 Build 0)  -->
<svg version="1.1" id="_图层_2" xmlns="http://www.w3.org/2000/svg" xmlns:xlink="http://www.w3.org/1999/xlink" x="0px" y="0px"
	 viewBox="0 0 500 130" style="enable-background:new 0 0 500 130;" xml:space="preserve">
<path d="M105.9,111.2c0-0.1,0-0.1,0-0.2c0-2.5-3.7-4.8-9.7-6.5c2.8-0.8,5.7-2.6,8.2-5.4c4.9-5.5,6-12.6,2.5-15.7
	c-3.5-3.2-10.3-1.1-15.3,4.3c-3.3,3.5-4.7,8.3-5.4,12.7c0,0.3,0.1,0.6,0.4,0.7c0.8,0.3,1.6,0.7,2.3,1.2c0.2,0.1,0.4,0.1,0.6,0.1
	c0.4-0.1,0.9-0.2,1.4-0.1c0.9,0.2,1.7,1,1.9,1.9c0.3,1.6-0.9,3-2.4,3c-1.2,0-2.1-0.8-2.4-1.9c0-0.2-0.2-0.3-0.3-0.4
	c-0.2-0.2-0.5-0.3-0.8-0.4c-0.5-0.2-1,0.1-1,0.6c0,0.2,0.1,0.4,0.2,0.5c0.7,0.6,1.1,1.4,1.1,2.4c0,1.9-1.8,3.5-3.8,3.1
	c-1.3-0.2-2.3-1.3-2.5-2.5s0.3-2.2,1.1-2.9c0.2-0.1,0.2-0.3,0.2-0.5v-0.1c0-0.5-0.6-0.8-1-0.6c-0.3,0.2-0.6,0.3-0.9,0.5
	c-0.1,0.1-0.3,0.3-0.3,0.4c-0.2,1.1-1.2,1.9-2.4,1.9c-1.5,0-2.7-1.4-2.4-3c0.2-0.9,0.9-1.7,1.9-1.9c0.5-0.1,0.9-0.1,1.4,0.1
	c0.2,0.1,0.4,0.1,0.6-0.1c1-0.6,2.1-1.1,3.1-1.4c0.2-0.1,0.4-0.3,0.4-0.6c0.3-5.7,1.2-10.3,4.8-15.3c1.9-2.7,4.1-3.8,4.1-6.6
	c0-1.3-0.2-2.5-0.7-3.7c2-1.6,3.2-4.1,3-6.9c-0.4-3.6-3.3-6.5-6.9-6.8c-3.4-0.3-6.3,1.5-7.7,4.2c-2.5-0.8-5.2-1.2-8-1.2
	s-5.6,0.4-8,1.2c-1.4-2.8-4.3-4.6-7.7-4.2c-3.6,0.4-6.5,3.3-6.9,6.8c-0.3,2.8,0.9,5.4,3,6.9c-0.4,1.2-0.7,2.4-0.7,3.7
	c0,2.9,2.4,4.2,4.5,7.1c3.7,5.1,3.7,9.7,4.4,14.9c0,0.2,0.2,0.4,0.4,0.5c1,0.4,2.1,0.9,3.1,1.5c0.2,0.1,0.4,0.1,0.6,0.1
	c0.4-0.2,0.9-0.2,1.4-0.1c0.9,0.2,1.7,1,1.9,1.9c0.3,1.6-0.9,3-2.4,3c-1.2,0-2.1-0.8-2.4-1.9c0-0.2-0.2-0.3-0.3-0.4
	c-0.3-0.2-0.6-0.3-0.9-0.5c-0.5-0.2-1,0.1-1,0.6v0.1c0,0.2,0.1,0.4,0.2,0.5c0.8,0.7,1.3,1.8,1.1,2.9c-0.2,1.3-1.2,2.3-2.5,2.5
	c-2,0.4-3.8-1.1-3.8-3.1c0-1,0.4-1.8,1.1-2.4c0.1-0.1,0.2-0.3,0.2-0.5c0-0.5-0.5-0.9-1-0.6c-0.3,0.2-0.5,0.3-0.8,0.4
	c-0.2,0.1-0.3,0.3-0.3,0.4c-0.2,1.1-1.2,1.9-2.4,1.9c-1.5,0-2.7-1.4-2.4-3c0.2-0.9,0.9-1.7,1.9-1.9c0.5-0.1,0.9-0.1,1.3,0.1
	c0.2,0.1,0.4,0,0.6-0.1c0.7-0.4,1.5-0.8,2.3-1.1c0.3-0.1,0.5-0.4,0.4-0.7c-0.7-4.4-1.7-7.9-4.5-11.7c-0.3-0.3-0.5-0.7-0.8-1
	c-4.9-5.5-11.8-7.5-15.3-4.3c-3.5,3-2.4,10,2.5,15.5c2.5,2.8,5.4,4.6,8.2,5.4c-5.5,1.5-9,3.6-9.6,5.8c-1.5-0.1-3.1-0.1-4.8-0.1
	c-0.7,0-1.4,0-2,0c-4.1-37,5.9-55.9,18.6-66.3c3.8,1.6,7.8,3.1,12,4.4c26.6,8.6,50.6,8.2,53.5-0.8s-16.3-23.3-43-31.8
	c-26.6-8.6-50.6-8.2-53.5,0.8c-0.8,2.4,0,5.2,2.1,8.1c3.5,4.9,9.2,7.9,15.2,8.3l9.8,0.6c1.8,0.1,2.1,2.6,0.5,3.2l-3.1,1.2
	c-1.3,0.5-1.4,2.4-0.1,3c0.8,0.4,1.6,0.8,2.4,1.1c-3.7,3.3-6.8,7-9.5,11.2C30.4,60,27.5,68,26,77c-1.6,9.7-1.8,20.9-0.4,33.4
	c-7.5,0.4-12.8,1.4-12.8,2.6c0,1.5,8.5,2.7,19,2.7c3.2,0,6.1-0.1,8.7-0.3c5.8,3,17.4,5,30.7,5c10.1,0,19.2-1.2,25.6-3
	c9.7-0.2,17.4-1.6,17.4-3.4l0,0C114.2,112.8,110.9,111.8,105.9,111.2z M86.2,63c3,0,5.5,2.5,5.5,5.5S89.2,74,86.2,74
	s-5.5-2.5-5.5-5.5S83.1,63,86.2,63z M56.3,74c-3,0-5.5-2.5-5.5-5.5s2.5-5.5,5.5-5.5s5.5,2.5,5.5,5.5S59.3,74,56.3,74z M237.5,66.9
	c-3.1-1.5-6.7-2.2-10.7-2.2c-3.4,0-6.5,0.5-9.4,1.6s-5.3,2.5-7.4,4.5c-2,1.9-3.5,4.2-4.5,6.9l10.5,5c0.8-2.1,2.1-3.8,3.9-5.1
	c1.8-1.3,3.7-1.9,6.2-1.9s4.4,0.6,5.8,1.8c1.4,1.2,2.1,2.8,2.1,4.6v1.3l-13.2,2.1c-3.8,0.6-7,1.6-9.5,3s-4.4,3.1-5.7,5.2
	c-1.2,2.1-1.8,4.5-1.8,7.2c0,2.9,0.7,5.3,2,7.4s3.3,3.7,5.8,4.8c2.5,1.1,5.5,1.7,9,1.7c2.6,0,4.9-0.3,7-1s4-1.7,5.7-3.1
	c0.6-0.5,1.1-1,1.7-1.5v4.6h12.3V82.1c0-3.5-0.9-6.5-2.6-9.1S240.6,68.4,237.5,66.9z M232.8,99.9c-0.9,1.6-2.2,2.9-3.8,3.8
	s-3.5,1.4-5.7,1.4c-1.6,0-3-0.4-4.1-1.2c-1.1-0.8-1.7-2-1.7-3.4c0-1.6,0.5-2.8,1.5-3.6c1-0.8,2.4-1.5,4.3-1.8l10.9-1.9v1.5
	C234.2,96.5,233.7,98.3,232.8,99.9z M57.3,64.2c-1.5,0-2.7,1.2-2.7,2.7s1.2,2.7,2.7,2.7s2.7-1.2,2.7-2.7
	C59.9,65.4,58.7,64.2,57.3,64.2z M87.3,69.5c1.5,0,2.7-1.2,2.7-2.7s-1.2-2.7-2.7-2.7s-2.7,1.2-2.7,2.7
	C84.6,68.3,85.8,69.5,87.3,69.5z M180.6,93.6l-10.3-27.8h-11.4l-10.4,27.8l-9.4-27.8h-13.6l16.5,47.9h11.4L164.6,83l11,30.7H187
	l16.6-47.9h-13.7L180.6,93.6z M285.4,65.8l-9.3,13.7l-9.3-13.7h-15.2l16.8,23.9l-16.7,24h15.2l9.2-13.8l9.3,13.8h15.1l-16.6-24
	l16.8-23.9H285.4z M420,99.9h11.4V96H420v-5.6h-4.2V96h-11.3v3.9h11.3v10h-14v3.8h31v-3.8H420V99.9z M420,75.2h10.9v-3.8H420v-5.7
	h-4.2v5.7h-10.7v3.8h10.7v8.7h-12.7v3.9h29.7v-3.9H420V75.2z M471.6,107.1c2.3-1.4,4.3-3,6-4.6s3.2-3.4,4.7-5.3h-26.7
	c1-0.8,1.9-1.8,2.7-2.8l-2.2-0.4h27.1V73.6h-20.9l1.7-3.2h22.7v-3.5h-50v3.5h22.9l-1.4,3.2h-17.8v22h4.1V94h9.2
	c-1.6,1.6-3.8,3.2-6.6,4.8c-2.7,1.5-6.2,2.7-10.5,3.6l1.8,3.8c4.7-1.1,9.1-3,13.2-5.7H474c-2.2,2.1-4.8,3.8-7.7,5.2l-14.8-3.9
	l-1.2,3.1l10.5,3.1c-6.8,2.2-14.9,3.3-24.4,3.2l0.8,3.9c11.7-0.1,21.5-1.9,29.5-5.4l19,5.5l1.6-4L471.6,107.1z M444.4,90.9
	L444.4,90.9v-3.1h31.9V85h-31.9v-2.7h31.9v-2.8h-31.9v-2.7h34.7V91L444.4,90.9L444.4,90.9z M405.4,107.9c-1.7-3.4-3.1-7-4.3-10.7
	l-3.4,0.9c0.3,1.3,0.9,3,1.6,5.2l-4.6,1.4V94.3h7.4v-21h-7.4v-7.8h-4.1v7.8h-7.3v23h3.7v-2h3.7V106l-8.4,2.6l1.1,4.2l17.3-6.1
	l1.2,2.9L405.4,107.9z M394.7,77.1h3.8v13.4h-3.8V77.1z M390.7,90.5H387V77.1h3.7V90.5z M358.2,100.5h13.2v13.2h-13.2V100.5z
	 M335.1,66.9c-3.1-1.5-6.7-2.2-10.7-2.2c-3.4,0-6.5,0.5-9.4,1.6s-5.3,2.5-7.4,4.5c-2,1.9-3.5,4.2-4.5,6.9l10.5,5
	c0.8-2.1,2.1-3.8,3.9-5.1c1.8-1.3,3.7-1.9,6.2-1.9c2.4,0,4.4,0.6,5.8,1.8c1.4,1.2,2.2,2.8,2.2,4.6v1.3l-13.3,2.1
	c-3.8,0.6-7,1.6-9.5,3c-2.6,1.4-4.4,3.1-5.7,5.2c-1.2,2.1-1.8,4.5-1.8,7.2c0,2.9,0.7,5.3,2,7.4s3.3,3.7,5.8,4.8
	c2.5,1.1,5.5,1.7,9,1.7l0,0c2.6,0,4.9-0.3,7-1s4-1.7,5.7-3.1c0.6-0.5,1.1-1,1.7-1.5v4.6H345V82.1c0-3.5-0.9-6.5-2.6-9.1
	C340.7,70.4,338.2,68.4,335.1,66.9z M330.5,99.9c-0.9,1.6-2.2,2.9-3.8,3.8s-3.5,1.4-5.7,1.4c-1.6,0-3-0.4-4.1-1.2
	c-1.1-0.8-1.7-2-1.7-3.4c0-1.6,0.5-2.8,1.5-3.6c1-0.8,2.4-1.5,4.3-1.8l10.9-1.9v1.5C331.8,96.5,331.4,98.3,330.5,99.9z"/>
</svg>
