<?xml version="1.0" encoding="utf-8"?>
<!-- Generator: Adobe Illustrator 27.4.1, SVG Export Plug-In . SVG Version: 6.00 Build 0)  -->
<svg version="1.1" id="_图层_2" xmlns="http://www.w3.org/2000/svg" xmlns:xlink="http://www.w3.org/1999/xlink" x="0px" y="0px"
	 viewBox="0 0 708.1 150" style="enable-background:new 0 0 708.1 150;" xml:space="preserve">
<g id="_图层_1-2">
	<path d="M203.4,64.2L192,111c-0.6,2.4-1.5,4.2-2.7,5.3c-1.2,1.1-2.8,1.7-4.8,1.7H180l-13.1-38.6l-13.4,38.6h-4.6
		c-1.9,0-3.5-0.6-4.8-1.7c-1.2-1.1-2.1-2.9-2.7-5.3L130,64.2h10.6l8.9,41.5l13.7-40.1h3.8c1.3,0,2.3,0.3,3.1,0.9
		c0.8,0.6,1.4,1.6,1.8,2.9l12.1,36.4l8.9-41.6L203.4,64.2L203.4,64.2z M213.7,114.8c-3.2-2.8-4.9-6.5-4.9-11.1v-3.6
		c0-4.5,1.7-8.2,5.1-11c3.4-2.8,7.8-4.2,13.3-4.2h6.8c2.2,0,4.5,0.3,6.9,1s4.5,1.6,6.3,2.7v-7.9c0-2.7-0.8-4.8-2.5-6.4
		c-1.7-1.6-3.8-2.4-6.5-2.4h-8.9c-2.7,0-4.9,0.7-6.6,1.9c-1.7,1.3-2.5,3-2.5,5.1h-9.9c0-4.7,1.7-8.5,5.2-11.3
		c3.5-2.9,8.1-4.3,13.8-4.3h8.9c5.7,0,10.3,1.6,13.7,4.8c3.5,3.2,5.2,7.4,5.2,12.7v37.3h-9.4v-7.2c-1.7,2.4-3.8,4.4-6.5,5.9
		c-2.7,1.5-5.4,2.2-8.1,2.2h-6.5C221.3,118.9,216.9,117.5,213.7,114.8L213.7,114.8z M233.7,110.6c3.2,0,6-0.9,8.4-2.8
		c2.4-1.8,4.1-4.3,5.1-7.4v-3.2c-1.4-1.2-3.2-2.2-5.6-2.9c-2.4-0.7-4.8-1.1-7.3-1.1h-6.9c-2.5,0-4.6,0.7-6.2,1.9
		c-1.6,1.3-2.4,3-2.4,5.2v3.2c0,2.2,0.8,3.9,2.3,5.1c1.6,1.3,3.6,1.9,6.2,1.9L233.7,110.6L233.7,110.6z M284.9,90.6l-19.6-26.5h11.5
		l13.9,18.9l13.9-18.9h11.5l-19.5,26.5l20.3,27.4h-11.3l-14.8-20l-14.8,20h-11.3L284.9,90.6L284.9,90.6z M325.8,114.8
		c-3.2-2.8-4.9-6.5-4.9-11.1v-3.6c0-4.5,1.7-8.2,5.1-11c3.4-2.8,7.8-4.2,13.3-4.2h6.8c2.2,0,4.5,0.3,6.9,1s4.5,1.6,6.3,2.7v-7.9
		c0-2.7-0.8-4.8-2.5-6.4c-1.7-1.6-3.8-2.4-6.5-2.4h-8.9c-2.7,0-4.9,0.7-6.6,1.9c-1.7,1.3-2.5,3-2.5,5.1h-9.9c0-4.7,1.7-8.5,5.2-11.3
		c3.5-2.9,8.1-4.3,13.8-4.3h8.9c5.7,0,10.3,1.6,13.7,4.8c3.5,3.2,5.2,7.4,5.2,12.7v37.3h-9.4v-7.2c-1.7,2.4-3.8,4.4-6.5,5.9
		s-5.4,2.2-8.1,2.2h-6.5C333.4,118.9,329,117.5,325.8,114.8L325.8,114.8z M345.8,110.6c3.2,0,6-0.9,8.4-2.8c2.5-1.8,4.1-4.3,5.1-7.4
		v-3.2c-1.4-1.2-3.2-2.2-5.6-2.9s-4.8-1.1-7.3-1.1h-6.9c-2.5,0-4.6,0.7-6.2,1.9c-1.6,1.3-2.4,3-2.4,5.2v3.2c0,2.2,0.8,3.9,2.3,5.1
		c1.5,1.3,3.6,1.9,6.2,1.9L345.8,110.6L345.8,110.6z M381.3,117.2c-1.3-1.3-1.9-2.9-1.9-4.9s0.6-3.7,1.9-5s2.9-1.9,4.9-1.9
		s3.8,0.6,5,1.9c1.3,1.3,1.9,2.9,1.9,5s-0.6,3.7-1.9,4.9s-3,1.9-5,1.9S382.5,118.5,381.3,117.2L381.3,117.2z M406.6,113.5
		c-3.1-3.6-4.6-8.3-4.6-14.3v-16c0-6,1.7-10.8,5-14.5c3.3-3.7,7.7-5.5,13.1-5.5h8.4c2.7,0,5.4,0.7,7.8,2.2c2.5,1.5,4.5,3.5,6,6v-29
		h3.8V118h-3.7v-10.2c-1.9,3.6-4.2,6.3-6.9,8.2c-2.7,1.9-5.6,2.8-8.8,2.8h-7.8C413.8,118.9,409.7,117.1,406.6,113.5L406.6,113.5z
		 M426.7,115.5c3.4,0,6.5-1.4,9.3-4.2s4.9-6.5,6.3-11.1V78.7c-0.9-3.5-2.7-6.4-5.2-8.6c-2.6-2.2-5.4-3.3-8.6-3.3H420
		c-4.2,0-7.7,1.5-10.3,4.5c-2.6,3-3.9,7-3.9,12v16c0,4.8,1.2,8.7,3.6,11.7c2.4,3,5.6,4.5,9.6,4.5L426.7,115.5L426.7,115.5z
		 M464.5,113.9c-3.3-3.3-4.9-7.8-4.9-13.2V82.7c0-5.8,1.6-10.5,4.9-14.1c3.3-3.6,7.6-5.4,12.9-5.4h8.9c5.2,0,9.5,1.7,12.6,5.2
		c3.2,3.5,4.8,8.1,4.8,13.8V91h-40.3v9.6c0,4.5,1.3,8.1,3.9,10.8c2.6,2.7,6,4.1,10.3,4.1h8.2c4.2,0,7.5-1.3,10.1-3.8
		c2.5-2.5,3.8-5.8,3.8-9.9h3.8c0,5.1-1.6,9.2-4.9,12.4c-3.3,3.2-7.5,4.8-12.8,4.8h-8.2C472.2,118.9,467.8,117.2,464.5,113.9
		L464.5,113.9z M499.9,87.7v-5.4c0-4.7-1.2-8.4-3.7-11.3c-2.5-2.8-5.8-4.3-9.9-4.3h-8.9c-4.2,0-7.6,1.5-10.2,4.4
		c-2.6,2.9-3.8,6.8-3.8,11.6v5L499.9,87.7L499.9,87.7z M519.5,114.6c-2.9-2.9-4.4-6.7-4.4-11.3h3.7c0,3.7,1.1,6.6,3.4,8.9
		c2.3,2.2,5.2,3.3,8.9,3.3h9.2c3.8,0,6.9-0.8,9.2-2.4c2.3-1.6,3.5-3.7,3.5-6.3v-4.8c0-1.8-0.6-3.4-1.9-4.8c-1.3-1.4-2.9-2.3-5-2.7
		l-18.9-3.2c-3.2-0.5-5.9-1.8-7.9-3.9c-2-2.1-3-4.5-3-7.2v-3.8c0-4,1.4-7.2,4.2-9.6c2.8-2.4,6.5-3.6,11.1-3.6h9.2
		c4.5,0,8,1.3,10.8,3.9s4,6.1,4,10.4h-3.7c-0.1-3.3-1.1-6-3.2-7.9c-2-2-4.7-3-7.9-3h-9.2c-3.5,0-6.2,0.9-8.4,2.7
		c-2.1,1.8-3.2,4.1-3.2,7v3.8c0,1.9,0.7,3.6,2.1,5c1.4,1.4,3.3,2.3,5.6,2.7l18.9,3.2c3,0.6,5.5,1.8,7.3,3.8c1.9,2,2.8,4.3,2.8,7.1
		v4.8c0,3.6-1.5,6.5-4.5,8.8c-3,2.2-7,3.3-12,3.3h-9.2C526.2,118.9,522.4,117.4,519.5,114.6L519.5,114.6z M569.4,53
		c-0.7-0.7-1-1.6-1-2.8s0.3-2.1,1-2.8c0.7-0.7,1.6-1,2.8-1s2.1,0.3,2.8,1s1,1.6,1,2.8s-0.3,2.1-1,2.8s-1.6,1-2.8,1
		S570.1,53.7,569.4,53z M570.2,64.2h3.8V118h-3.8V64.2z M595.6,136.8c-2.7-2.1-4.2-4.9-4.5-8.4h3.8c0.3,2.4,1.4,4.4,3.4,5.9
		c2,1.5,4.5,2.2,7.5,2.2h9.1c4.2,0,7.6-1.4,10-4.2c2.4-2.8,3.6-6.6,3.6-11.5V108c-1.8,3-4.1,5.4-6.8,7.3c-2.7,1.8-5.6,2.8-8.5,2.8
		h-8c-5.1,0-9.2-1.8-12.3-5.3c-3.1-3.6-4.6-8.3-4.6-14.2V83.4c0-6.1,1.7-10.9,5-14.6c3.3-3.7,7.7-5.5,13.1-5.5h8.4
		c2.7,0,5.4,0.8,7.9,2.3c2.5,1.5,4.5,3.6,6,6.2v-7.6h3.7v56.7c0,6-1.5,10.7-4.6,14c-3.1,3.4-7.3,5.1-12.8,5.1h-9.1
		C601.6,140,598.2,138.9,595.6,136.8L595.6,136.8z M612.8,114.6c3.6,0,6.8-1.4,9.6-4.2c2.8-2.8,4.8-5.8,5.9-9.1V78.7
		c-0.9-3.5-2.7-6.4-5.2-8.6c-2.6-2.2-5.4-3.3-8.6-3.3h-8.4c-4.2,0-7.7,1.5-10.3,4.6c-2.6,3.1-3.9,7.1-3.9,12v15.1
		c0,4.8,1.2,8.7,3.6,11.7s5.6,4.4,9.6,4.4L612.8,114.6L612.8,114.6z M647.2,64.2h3.7v10.5c2-3.7,4.4-6.5,7.2-8.4
		c2.8-1.9,5.8-2.9,8.9-2.9h7.1c4.5,0,8.1,1.6,10.8,4.8c2.8,3.2,4.2,7.4,4.2,12.7v37.3h-3.8V80.8c0-4.2-1-7.6-3.1-10.2
		c-2-2.6-4.8-3.9-8.2-3.9H667c-3.1,0-6.1,1.3-9.1,4c-3,2.7-5.3,6.2-6.9,10.6v36.7h-3.8L647.2,64.2L647.2,64.2z M56.7,64.6
		c-1.5,0-2.7,1.2-2.7,2.7s1.2,2.7,2.7,2.7s2.7-1.2,2.7-2.7S58.2,64.6,56.7,64.6z M86.8,64.6c-1.5,0-2.7,1.2-2.7,2.7s1.2,2.7,2.7,2.7
		s2.7-1.2,2.7-2.7S88.2,64.6,86.8,64.6z M105.4,111.6c0-0.1,0-0.1,0-0.2c0-2.5-3.7-4.8-9.7-6.5c2.8-0.8,5.7-2.6,8.2-5.4
		c4.9-5.5,6-12.6,2.5-15.7c-3.6-3.2-10.3-1.1-15.3,4.3c-3.3,3.5-4.7,8.3-5.3,12.7c-0.1,0.3,0.1,0.6,0.4,0.7c0.8,0.3,1.6,0.7,2.3,1.2
		c0.2,0.1,0.4,0.1,0.6,0.1c0.4-0.2,0.9-0.2,1.3-0.1c0.9,0.2,1.7,1,1.9,1.9c0.3,1.6-0.9,3-2.4,3c-1.2,0-2.1-0.8-2.4-1.9
		c0-0.2-0.2-0.3-0.3-0.4c-0.2-0.2-0.5-0.3-0.8-0.4c-0.5-0.2-1,0.1-1,0.6l0,0c0,0.2,0.1,0.4,0.2,0.5c0.7,0.6,1.1,1.4,1.1,2.4
		c0,1.9-1.8,3.5-3.8,3.1c-1.3-0.2-2.3-1.3-2.5-2.6c-0.2-1.2,0.3-2.2,1.1-2.9c0.2-0.1,0.2-0.3,0.2-0.5v-0.1c0-0.5-0.6-0.8-1-0.6
		c-0.3,0.2-0.6,0.3-0.9,0.5c-0.1,0.1-0.3,0.3-0.3,0.4c-0.2,1.1-1.2,1.9-2.4,1.9c-1.5,0-2.7-1.4-2.4-3c0.2-0.9,0.9-1.7,1.9-1.9
		c0.5-0.1,0.9-0.1,1.4,0.1c0.2,0.1,0.4,0,0.6-0.1c1-0.6,2.1-1.1,3.1-1.4c0.2-0.1,0.4-0.3,0.4-0.6c0.3-5.7,1.2-10.3,4.8-15.3
		c1.9-2.7,4.1-3.8,4.1-6.7c0-1.3-0.2-2.5-0.7-3.7c2-1.6,3.2-4.1,3-6.9c-0.4-3.6-3.3-6.5-6.9-6.8c-3.3-0.3-6.3,1.5-7.7,4.2
		c-2.5-0.8-5.2-1.2-8-1.2s-5.6,0.4-8,1.2c-1.4-2.8-4.3-4.6-7.7-4.2c-3.6,0.4-6.5,3.2-6.9,6.8c-0.3,2.8,0.9,5.4,3,6.9
		c-0.4,1.2-0.7,2.4-0.7,3.7c0,2.9,2.4,4.2,4.5,7.1c3.7,5.1,3.7,9.7,4.4,14.9c0,0.2,0.2,0.4,0.4,0.5c1,0.4,2.1,0.9,3.1,1.4
		c0.2,0.1,0.4,0.1,0.6,0.1c0.4-0.2,0.9-0.2,1.4-0.1c0.9,0.2,1.7,1,1.9,1.9c0.3,1.6-0.9,3-2.4,3c-1.2,0-2.1-0.8-2.4-1.9
		c0-0.2-0.2-0.3-0.3-0.4c-0.3-0.2-0.6-0.3-0.9-0.5c-0.5-0.2-1,0.1-1,0.6v0.1c0,0.2,0.1,0.4,0.2,0.5c0.8,0.7,1.3,1.8,1.1,2.9
		c-0.2,1.3-1.2,2.3-2.5,2.6c-2,0.4-3.8-1.2-3.8-3.1c0-1,0.4-1.8,1.1-2.4c0.2-0.1,0.2-0.3,0.2-0.5l0,0c0-0.5-0.5-0.9-1-0.6
		c-0.3,0.1-0.5,0.3-0.8,0.4c-0.2,0.1-0.3,0.3-0.3,0.4c-0.2,1.1-1.2,1.9-2.4,1.9c-1.5,0-2.7-1.4-2.4-3c0.2-0.9,0.9-1.7,1.9-1.9
		c0.5-0.1,0.9-0.1,1.3,0.1c0.2,0.1,0.4,0.1,0.6-0.1c0.7-0.4,1.5-0.8,2.3-1.2c0.3-0.1,0.5-0.4,0.4-0.7c-0.7-4.4-1.7-7.9-4.5-11.7
		c-0.3-0.3-0.5-0.7-0.8-1c-4.9-5.5-11.8-7.5-15.3-4.3c-3.5,3.2-2.4,10.2,2.5,15.7c2.5,2.8,5.4,4.6,8.2,5.4c-5.5,1.5-9,3.6-9.6,5.8
		c-1.5-0.1-3.1-0.1-4.8-0.1c-0.7,0-1.4,0-2,0c-4.1-37,5.9-55.9,18.6-66.3c3.8,1.6,7.8,3.1,12,4.4c26.6,8.6,50.6,8.2,53.5-0.8
		c2.9-9-16.3-23.3-43-31.9C43.7,7.7,19.7,8,16.8,17c-0.8,2.4,0,5.1,2.1,8.1c3.5,4.9,9.1,7.9,15.2,8.3l9.8,0.6
		c1.8,0.1,2.1,2.6,0.5,3.2l-3.1,1.1c-1.3,0.5-1.5,2.4-0.1,3c0.8,0.4,1.6,0.8,2.4,1.1c-3.7,3.3-6.8,7-9.5,11.2
		c-4.2,6.7-7.1,14.6-8.6,23.7c-1.6,9.7-1.8,20.9-0.4,33.4c-7.5,0.4-12.8,1.4-12.8,2.6c0,1.5,8.5,2.7,19,2.7c3.2,0,6.1-0.1,8.7-0.3
		c5.8,3,17.4,5,30.7,5c10.1,0,19.3-1.2,25.6-3.1c9.7-0.2,17.4-1.6,17.4-3.3C113.7,113.2,110.4,112.2,105.4,111.6L105.4,111.6z
		 M85.6,63.4c3,0,5.5,2.5,5.5,5.5c0,3-2.4,5.5-5.5,5.5s-5.5-2.4-5.5-5.5C80.1,65.9,82.6,63.4,85.6,63.4z M55.7,74.4
		c-3,0-5.5-2.4-5.5-5.5c0-3,2.5-5.5,5.5-5.5s5.5,2.5,5.5,5.5C61.2,71.9,58.8,74.4,55.7,74.4z"/>
</g>
</svg>
